<?xml version="1.0" standalone="no"?>
<svg xmlns="http://www.w3.org/2000/svg" viewBox="0 0 425.3776762406944 214.9376762406944" width="425.3776762406944" height="214.9376762406944"><rect fill="#61d1b6" width="425.3776762406944" height="214.9376762406944" x="0" y="0"></rect><g fill="white" color="white" transform="translate(222.441 12) scale(3.9778683)"><svg width="48.0" height="48.0" x="0.0" y="0.0" viewBox="0 0 48 48"><g transform="translate(0,-1004.3622)"><path style="color:#000000;font-style:normal;font-variant:normal;font-weight:normal;font-stretch:normal;font-size:medium;line-height:normal;font-family:sans-serif;text-indent:0;text-align:start;text-decoration:none;text-decoration-line:none;text-decoration-style:solid;text-decoration-color:#000000;letter-spacing:normal;word-spacing:normal;text-transform:none;direction:ltr;block-progression:tb;writing-mode:lr-tb;baseline-shift:baseline;text-anchor:start;white-space:normal;clip-rule:nonzero;display:inline;overflow:visible;visibility:visible;opacity:1;isolation:auto;mix-blend-mode:normal;color-interpolation:sRGB;color-interpolation-filters:linearRGB;solid-color:#000000;solid-opacity:1;fill:#000000;fill-opacity:1;fill-rule:nonzero;stroke:none;stroke-width:0.99999994;stroke-linecap:round;stroke-linejoin:round;stroke-miterlimit:4;stroke-dasharray:none;stroke-dashoffset:0;stroke-opacity:1;color-rendering:auto;image-rendering:auto;shape-rendering:auto;text-rendering:auto;enable-background:accumulate" d="m 28.138632,17.804696 c 0.545838,-0.801174 0.865234,-1.768045 0.865234,-2.810547 l 0,-0.144532 c 0.588751,-0.254924 0.99964,-0.833225 1,-1.5 -3.61e-4,-0.667077 -0.410785,-1.247241 -1,-1.501953 l 0,-0.146484 c 0.364704,-0.04098 0.728806,-0.081 1.09375,-0.13086 0.664062,-0.06771 0.5625,-1.063801 -0.101562,-0.996093 l 0,0.0039 c -0.01171,-4.12e-4 -0.02344,-4.12e-4 -0.03516,0 -0.321357,0.04387 -0.641803,0.06081 -0.962891,0.09766 4.89e-4,-0.02063 0.0059,-0.03359 0.0059,-0.05469 l 0,-1.9882815 0,-1.1699219 0,-1.4707031 0,-1 c 0,-1.6534 -1.34664,-3 -3,-3 l -3.964844,0 c -0.01172,-4.121e-4 -0.02344,-4.121e-4 -0.03516,0 l 0,0.00195 c -1.65336,0 -3,1.3466 -3,3 l 0,1 0,1.4746094 0,1.1699219 0,1.9863282 c 0,0.02948 0.0069,0.04763 0.0078,0.07617 -0.305547,-0.03479 -0.610655,-0.06617 -0.916016,-0.107422 -0.664257,-0.09221 -0.797936,0.906454 -0.132812,0.992188 0.346669,0.04686 0.69406,0.08433 1.041015,0.123046 l 0,0.134766 c -0.589531,0.254382 -0.999637,0.836245 -1,1.503906 0.0015,0.666715 0.411274,1.245816 1,1.5 l 0,0.146485 c 0,1.038994 0.316895,2.003138 0.859375,2.802734 l -8.880834,7.281292 -1.2500001,1.017578 c -1.1229798,0.9161 -1.2914932,2.579619 -0.3710938,3.699219 l 0.00781,0.0098 0.00586,0.0059 0.017578,0.01758 0,0.002 c 0.9201359,1.1193 2.5853239,1.286141 3.7089839,0.369141 l 3.902344,-3.179688 0,7.47461 0,0.5 2,0 0,10.5 c 2.8e-5,0.276131 0.223869,0.499972 0.5,0.5 l 0.01563,0 3.984375,0 0.482422,0 0.517578,0 3.982422,0 0.01758,0 c 0.276131,-2.8e-5 0.499972,-0.223869 0.5,-0.5 l 0,-10.5 1.5,0 c 0.01698,-4.39e-4 0.03393,-0.0017 0.05078,-0.0039 0.25464,-0.02602 0.448518,-0.240128 0.449218,-0.496093 l 0,-7.470703 3.902344,3.179687 c 0.173506,0.141595 0.362048,0.247494 0.556641,0.337891 -0.579304,0.458641 -0.958985,1.160203 -0.958985,1.953125 -0.0096,0.676161 1.009563,0.676161 1,0 0,-0.8397 0.660352,-1.5 1.5,-1.5 0.839649,0 1.5,0.6603 1.5,1.5 l 0,13 c -0.0096,0.676161 1.009563,0.676161 1,0 l 0,-13 c 0,-0.968445 -0.561916,-1.803935 -1.371094,-2.21875 0.173982,-0.127377 0.33955,-0.26761 0.482422,-0.441407 l 0.02344,-0.02734 0.0078,-0.0098 0,-0.002 c 0.114697,-0.139523 0.213784,-0.287492 0.294922,-0.441406 l 0,-0.002 c 0.081,-0.15388 0.145368,-0.31331 0.19336,-0.476562 l 0,-0.002 c 0.04786,-0.163234 0.08031,-0.33045 0.0957,-0.498047 l 0,-0.002 c 0.01527,-0.167586 0.01277,-0.335009 -0.0039,-0.501953 l 0,-0.002 c -0.0168,-0.166946 -0.04943,-0.332842 -0.09766,-0.494141 l 0,-0.002 c -0.0969,-0.323253 -0.25653,-0.631948 -0.476562,-0.902344 -0.110286,-0.135353 -0.236576,-0.260475 -0.376953,-0.375 l -1.085936,-0.884624 z m -6.134741,-14.8105605 4,0 c 1.116661,0 2,0.8833 2,2 l 0,1 0,1.4707032 0,1.1699218 0,0.1523438 c -2.675419,0.2489607 -5.340953,0.2533035 -8,0.011719 l 0,-0.1601562 0,-1.1699219 0,-1.4746094 0,-1 c 0,-1.1167 0.883339,-2 2,-2.0000003 z m 6,6.7949219 0,0.8339846 c 0,0.036 -0.0111,0.087 -0.01367,0.125 -2.665533,0.2469 -5.323038,0.249666 -7.972656,0.0098 -0.0029,-0.041 -0.01367,-0.09501 -0.01367,-0.132812 l 0,-0.826172 c 2.659235,0.236337 5.325938,0.233657 8,-0.00977 z m 0,2.0117186 0,3.19336 c 0,2.2246 -1.775352,4 -4,4 -2.224649,0 -4,-1.7754 -4,-4 l 0,-3.185547 c 2.65895,0.236512 5.326213,0.233354 8,-0.0078 z m -5.65039,0.892578 c -0.358834,8.58e-4 -0.649087,0.291112 -0.648438,0.648438 4.33e-4,0.356564 0.29037,0.645627 0.648438,0.646484 0.35883,2.15e-4 0.649955,-0.289162 0.65039,-0.646484 6.5e-4,-0.358085 -0.290793,-0.648653 -0.65039,-0.648438 z m 3.300781,0 c -0.359597,-2.16e-4 -0.651041,0.290353 -0.650391,0.648438 4.35e-4,0.357322 0.291561,0.646699 0.650391,0.646484 0.35883,2.15e-4 0.649956,-0.289162 0.650391,-0.646484 6.5e-4,-0.358085 -0.290794,-0.648654 -0.650391,-0.648438 z m -3.183594,3.296875 c -0.357972,0.0231 -0.575898,0.404474 -0.414062,0.72461 0.360543,0.7459 1.089437,1.289062 1.947265,1.289062 0.857828,0 1.586723,-0.543162 1.947266,-1.289062 0.296451,-0.602366 -0.612153,-1.041886 -0.900391,-0.435547 -0.218617,0.4523 -0.607175,0.724609 -1.046875,0.724609 -0.4397,0 -0.828258,-0.272309 -1.046875,-0.724609 -0.07925,-0.17061 -0.24755,-0.282306 -0.435547,-0.289063 -0.01692,-8.6e-4 -0.03387,-8.6e-4 -0.05078,0 z m 4.232422,3.201172 -2.6875,4.181641 -2.703125,-4.177735 c 0.778194,0.499542 1.698036,0.798829 2.691406,0.798829 0.996487,0 1.919512,-0.300305 2.699219,-0.802735 z m -6.373047,0.324219 2.388672,3.693359 -1.607422,-0.367187 0.326172,-0.570313 c 0.176971,-0.310094 -0.0187,-0.700404 -0.373047,-0.74414 l -1.353515,-0.16211 z m 7.34961,0.0039 0.61914,1.845703 -1.353516,0.16211 c -0.355184,0.04251 -0.552149,0.433365 -0.375,0.74414 l 0.326172,0.570313 -1.583984,0.361328 z m -8.4375,0.08789 -0.675782,2.021484 c -0.09983,0.299951 0.10025,0.616113 0.414063,0.654297 l 1.214843,0.146485 -0.287109,0.5 c -0.167186,0.291382 -0.0052,0.661447 0.322266,0.736328 l 3.265625,0.746093 0.08789,0.134766 c 0.0084,0.01478 0.01751,0.02912 0.02734,0.04297 l 0.88086,1.363281 -0.970704,2.755859 c -0.0074,0.01656 -0.01395,0.03351 -0.01953,0.05078 l -1.84375,5.234375 -3.654297,0 0,-13.361329 z m 9.523437,0 1.238281,1.02539 0,5.310547 c -7.95e-4,0.01627 -7.95e-4,0.03256 0,0.04883 l 0,8.001953 -3.65625,0 -1.833984,-5.09375 1.083984,-3.080079 -0.132812,-0.205078 -0.800782,-1.238281 3.113282,-0.710937 c 0.327486,-0.07488 0.489451,-0.444946 0.322265,-0.736328 l -0.287109,-0.5 1.214844,-0.146485 c 0.313812,-0.03818 0.51389,-0.354346 0.414062,-0.654297 z m -11.761719,1.845703 0,4.277344 -3.105468,2.53125 -1.904297,-2.722657 z m 14,0.0039 5.009766,4.085938 -1.904297,2.720703 -3.105469,-2.529297 z m -19.787109,4.71875 1.902344,2.720703 -0.244141,0.199219 -0.40625,0.328125 c -0.176368,0.143897 -0.372987,0.245909 -0.576172,0.306641 -0.101281,0.03015 -0.204968,0.05062 -0.308594,0.06055 l -0.002,0 c -0.208526,0.01974 -0.418633,-0.0021 -0.61914,-0.0625 -0.100379,-0.0303 -0.198989,-0.06928 -0.292969,-0.119141 -0.09388,-0.04978 -0.182985,-0.110615 -0.267578,-0.179687 -0.0843,-0.06883 -0.164184,-0.146754 -0.236328,-0.234376 l 0,-0.002 -0.0078,-0.0098 -0.02344,-0.02734 c -0.072,-0.0876 -0.134455,-0.17787 -0.1855472,-0.273438 l 0,-0.002 c -0.050953,-0.09553 -0.092687,-0.194263 -0.1230469,-0.294921 l 0,-0.002 c -0.030229,-0.100629 -0.048653,-0.203715 -0.058594,-0.30664 l 0,-0.002 c -0.00982,-0.102913 -0.010181,-0.206214 0,-0.308594 l 0,-0.002 c 0.010308,-0.102381 0.030523,-0.203715 0.060547,-0.302735 l 0,-0.002 c 0.030158,-0.09903 0.071488,-0.196226 0.1210938,-0.289062 0.049753,-0.09286 0.1107433,-0.181806 0.1796873,-0.265625 0.06939,-0.08419 0.147848,-0.162188 0.236328,-0.234375 z m 25.574219,0 0.851562,0.695313 c 0.707885,0.5775 0.809305,1.584862 0.230469,2.289062 l -0.01758,0.01758 -0.0059,0.0078 -0.0078,0.0078 c -0.579148,0.7046 -1.595287,0.807669 -2.302735,0.230469 l -0.65039,-0.529297 z m -13.78711,0.316407 c -0.277252,7.2e-5 -0.501968,0.223913 -0.501953,0.5 -1.5e-5,0.276087 0.224701,0.499928 0.501953,0.5 0.277252,-7.2e-5 0.501968,-0.223913 0.501953,-0.5 1.5e-5,-0.276087 -0.224701,-0.499928 -0.501953,-0.5 z m 0.984375,3.90039 1.296875,3.601563 -2.566406,0 z m -3.984375,4.601563 2.363282,0 1.136718,0 0,8.640625 c -0.478067,-0.397362 -1.086853,-0.639582 -1.748047,-0.640625 l -0.002,0 c -0.66226,0 -1.271377,0.242454 -1.75,0.640625 z m 4.5,0 1.492188,0 2.007812,0 0,8.640625 c -0.478067,-0.397362 -1.086853,-0.639582 -1.748047,-0.640625 l -0.002,0 c -0.66226,0 -1.271377,0.242454 -1.75,0.640625 z m -2.75,9 c 0.670705,0 1.158451,0.4378 1.451172,1 l -2.902344,0 c 0.292883,-0.5629 0.779711,-0.9995 1.451172,-1 z m 4.5,0 c 0.670705,0 1.158451,0.4378 1.451172,1 l -2.902344,0 c 0.292883,-0.5629 0.779711,-0.9995 1.451172,-1 z" transform="translate(0,1004.3622)"></path></g></svg></g><path fill="white" fill-rule="nonzero" d="M1.80 28.32Q1.04 28.32 0.52 27.80Q0 27.28 0 26.52L0 26.52L0 2.64Q0 1.56 0.76 0.78Q1.52 0 2.60 0L2.60 0L3.92 0Q4.72 0 5.38 0.48Q6.04 0.96 6.36 1.68L6.36 1.68L15.44 24.32L24.52 1.68Q24.84 0.96 25.50 0.48Q26.16 0 26.96 0L26.96 0L28.28 0Q29.36 0 30.12 0.78Q30.88 1.56 30.88 2.64L30.88 2.64L30.88 26.52Q30.88 27.28 30.36 27.80Q29.84 28.32 29.08 28.32L29.08 28.32Q28.32 28.32 27.78 27.80Q27.24 27.28 27.24 26.52L27.24 26.52L27.24 3.80L18 26.64Q17.68 27.40 16.98 27.86Q16.28 28.32 15.44 28.32L15.44 28.32Q14.60 28.32 13.90 27.86Q13.20 27.40 12.88 26.64L12.88 26.64L3.64 3.80L3.64 26.52Q3.64 27.28 3.10 27.80Q2.56 28.32 1.80 28.32L1.80 28.32ZM40.44 28.32Q39.68 28.32 39.16 27.80Q38.64 27.28 38.64 26.52L38.64 26.52L38.64 2.04Q38.64 1.28 39.16 0.74Q39.68 0.20 40.44 0.20L40.44 0.20L49.76 0.20Q55.20 0.20 57.92 2.44Q60.64 4.68 60.64 8.32L60.64 8.32Q60.64 10.72 59.30 12.70Q57.96 14.68 55.40 15.56L55.40 15.56Q58.28 16.32 59.34 19.14Q60.40 21.96 60.40 24.68L60.40 24.68L60.40 26.52Q60.40 27.28 59.88 27.80Q59.36 28.32 58.60 28.32L58.60 28.32Q57.76 28.32 57.26 27.82Q56.76 27.32 56.76 26.52L56.76 26.52L56.76 25.32Q56.76 23.32 56.40 21.62Q56.04 19.92 54.68 18.58Q53.32 17.24 50.56 17.24L50.56 17.24L42.28 17.24L42.28 26.52Q42.28 27.28 41.74 27.80Q41.20 28.32 40.44 28.32L40.44 28.32ZM42.28 13.80L49.52 13.80Q52.96 13.80 54.98 12.44Q57 11.08 57 8.60L57 8.60Q57 6.20 55.26 4.92Q53.52 3.64 49.32 3.64L49.32 3.64L42.28 3.64L42.28 13.80Z" transform="translate(12 12) scale(3.223)"></path><path fill="white" fill-rule="nonzero" d="M1.80 28.32Q1.04 28.32 0.52 27.80Q0 27.28 0 26.52L0 26.52L0 2.24Q0 1.48 0.52 0.94Q1.04 0.40 1.80 0.40L1.80 0.40L11.24 0.40Q15.52 0.40 17.86 2.36Q20.20 4.32 20.20 7.64L20.20 7.64Q20.20 9.96 19.10 11.50Q18 13.04 16.28 13.80L16.28 13.80Q18.68 14.56 20.22 16.24Q21.76 17.92 21.76 20.48L21.76 20.48Q21.76 24.16 19.28 26.24Q16.80 28.32 11.48 28.32L11.48 28.32L1.80 28.32ZM3.64 12.48L10.28 12.48Q13.84 12.48 15.28 11.28Q16.72 10.08 16.72 7.92L16.72 7.92Q16.72 6.04 15.18 4.92Q13.64 3.80 10.96 3.80L10.96 3.80L3.64 3.80L3.64 12.48ZM3.64 24.92L11.12 24.92Q15 24.92 16.62 23.72Q18.24 22.52 18.24 20.32L18.24 20.32Q18.24 15.76 11.16 15.76L11.16 15.76L3.64 15.76L3.64 24.92ZM40.08 28.72Q35.88 28.72 32.72 26.88Q29.56 25.04 27.84 21.80Q26.12 18.56 26.04 14.36L26.04 14.36Q26.12 10.16 27.84 6.92Q29.56 3.68 32.72 1.84Q35.88 0 40.08 0L40.08 0Q44.28 0 47.42 1.84Q50.56 3.68 52.30 6.94Q54.04 10.20 54.12 14.36L54.12 14.36Q54.04 18.52 52.30 21.78Q50.56 25.04 47.42 26.88Q44.28 28.72 40.08 28.72L40.08 28.72ZM40.08 25.32Q43.28 25.32 45.64 23.88Q48 22.44 49.24 19.96Q50.48 17.48 50.48 14.36L50.48 14.36Q50.48 11.24 49.24 8.76Q48 6.28 45.64 4.84Q43.28 3.40 40.08 3.40L40.08 3.40Q36.84 3.40 34.50 4.84Q32.16 6.28 30.92 8.76Q29.68 11.24 29.68 14.36L29.68 14.36Q29.68 17.48 30.92 19.96Q32.16 22.44 34.50 23.88Q36.84 25.32 40.08 25.32L40.08 25.32ZM72.56 28.72Q68.36 28.72 65.20 26.88Q62.04 25.04 60.32 21.80Q58.60 18.56 58.52 14.36L58.52 14.36Q58.60 10.16 60.32 6.92Q62.04 3.68 65.20 1.84Q68.36 0 72.56 0L72.56 0Q76.76 0 79.90 1.84Q83.04 3.68 84.78 6.94Q86.52 10.20 86.60 14.36L86.60 14.36Q86.52 18.52 84.78 21.78Q83.04 25.04 79.90 26.88Q76.76 28.72 72.56 28.72L72.56 28.72ZM72.56 25.32Q75.76 25.32 78.12 23.88Q80.48 22.44 81.72 19.96Q82.96 17.48 82.96 14.36L82.96 14.36Q82.96 11.24 81.72 8.76Q80.48 6.28 78.12 4.84Q75.76 3.40 72.56 3.40L72.56 3.40Q69.32 3.40 66.98 4.84Q64.64 6.28 63.40 8.76Q62.16 11.24 62.16 14.36L62.16 14.36Q62.16 17.48 63.40 19.96Q64.64 22.44 66.98 23.88Q69.32 25.32 72.56 25.32L72.56 25.32ZM95.20 28.32Q94.16 28.32 93.42 27.58Q92.68 26.84 92.68 25.80L92.68 25.80L92.68 2.04Q92.68 1.28 93.20 0.74Q93.72 0.20 94.48 0.20L94.48 0.20Q95.24 0.20 95.78 0.74Q96.32 1.28 96.32 2.04L96.32 2.04L96.32 24.68L109.40 24.68Q110.16 24.68 110.70 25.22Q111.24 25.76 111.24 26.52L111.24 26.52Q111.24 27.28 110.70 27.80Q110.16 28.32 109.40 28.32L109.40 28.32L95.20 28.32ZM117.52 28.32Q116.76 28.32 116.24 27.80Q115.72 27.28 115.72 26.52L115.72 26.52L115.72 2.24Q115.72 1.48 116.24 0.94Q116.76 0.40 117.52 0.40L117.52 0.40L133.56 0.40Q134.28 0.40 134.78 0.90Q135.28 1.40 135.28 2.12L135.28 2.12Q135.28 2.84 134.78 3.32Q134.28 3.80 133.56 3.80L133.56 3.80L119.36 3.80L119.36 12.64L132.12 12.64Q132.84 12.64 133.34 13.14Q133.84 13.64 133.84 14.36L133.84 14.36Q133.84 15.08 133.34 15.56Q132.84 16.04 132.12 16.04L132.12 16.04L119.36 16.04L119.36 24.92L133.56 24.92Q134.28 24.92 134.78 25.42Q135.28 25.92 135.28 26.64L135.28 26.64Q135.28 27.36 134.78 27.84Q134.28 28.32 133.56 28.32L133.56 28.32L117.52 28.32ZM141.16 28.52Q140.36 28.52 139.86 28Q139.36 27.48 139.36 26.72L139.36 26.72Q139.36 26.40 139.56 25.92L139.56 25.92L149.76 1.84Q150.08 1.12 150.66 0.66Q151.24 0.20 152.08 0.20L152.08 0.20L152.48 0.20Q153.32 0.20 153.90 0.66Q154.48 1.12 154.80 1.84L154.80 1.84L165 25.92Q165.20 26.40 165.20 26.72L165.20 26.72Q165.20 27.48 164.70 28Q164.20 28.52 163.40 28.52L163.40 28.52Q162.84 28.52 162.38 28.22Q161.92 27.92 161.68 27.40L161.68 27.40L159.08 21.16L145.48 21.16L142.88 27.40Q142.64 27.92 142.18 28.22Q141.72 28.52 141.16 28.52L141.16 28.52ZM152.28 4.84L146.88 17.84L157.68 17.84L152.28 4.84ZM172.88 28.52Q172.12 28.52 171.60 28Q171.08 27.48 171.08 26.72L171.08 26.72L171.08 2.84Q171.08 1.76 171.84 0.98Q172.60 0.20 173.68 0.20L173.68 0.20L174.20 0.20Q175.48 0.20 176.40 1.40L176.40 1.40L191.80 23.64L191.80 2.04Q191.80 1.28 192.32 0.74Q192.84 0.20 193.60 0.20L193.60 0.20Q194.36 0.20 194.90 0.74Q195.44 1.28 195.44 2.04L195.44 2.04L195.44 25.92Q195.44 27 194.66 27.76Q193.88 28.52 192.80 28.52L192.80 28.52L192.32 28.52Q191.68 28.52 191.12 28.22Q190.56 27.92 190.20 27.44L190.20 27.44L174.72 5.08L174.72 26.72Q174.72 27.48 174.18 28Q173.64 28.52 172.88 28.52L172.88 28.52Z" transform="translate(12 111.275) scale(1)"></path><path fill="white" fill-rule="nonzero" d="M11.64 28.52Q10.88 28.52 10.36 28Q9.84 27.48 9.84 26.72L9.84 26.72L9.84 3.80L1.68 3.80Q0.96 3.80 0.48 3.32Q0 2.84 0 2.12L0 2.12Q0 1.40 0.48 0.90Q0.96 0.40 1.68 0.40L1.68 0.40L21.60 0.40Q22.32 0.40 22.82 0.90Q23.32 1.40 23.32 2.12L23.32 2.12Q23.32 2.84 22.82 3.32Q22.32 3.80 21.60 3.80L21.60 3.80L13.48 3.80L13.48 26.72Q13.48 27.48 12.94 28Q12.40 28.52 11.64 28.52L11.64 28.52ZM39.12 28.72Q34.92 28.72 31.76 26.88Q28.60 25.04 26.88 21.80Q25.16 18.56 25.08 14.36L25.08 14.36Q25.16 10.16 26.88 6.92Q28.60 3.68 31.76 1.84Q34.92 0 39.12 0L39.12 0Q43.32 0 46.46 1.84Q49.60 3.68 51.34 6.94Q53.08 10.20 53.16 14.36L53.16 14.36Q53.08 18.52 51.34 21.78Q49.60 25.04 46.46 26.88Q43.32 28.72 39.12 28.72L39.12 28.72ZM39.12 25.32Q42.32 25.32 44.68 23.88Q47.04 22.44 48.28 19.96Q49.52 17.48 49.52 14.36L49.52 14.36Q49.52 11.24 48.28 8.76Q47.04 6.28 44.68 4.84Q42.32 3.40 39.12 3.40L39.12 3.40Q35.88 3.40 33.54 4.84Q31.20 6.28 29.96 8.76Q28.72 11.24 28.72 14.36L28.72 14.36Q28.72 17.48 29.96 19.96Q31.20 22.44 33.54 23.88Q35.88 25.32 39.12 25.32L39.12 25.32ZM66.84 28.52Q66.08 28.52 65.54 28Q65 27.48 65 26.72L65 26.72L65 16.52L55.44 3.12Q55.12 2.60 55.12 2.04L55.12 2.04Q55.12 1.28 55.62 0.74Q56.12 0.20 56.88 0.20L56.88 0.20Q57.88 0.20 58.48 1.12L58.48 1.12L66.84 13.28L75.20 1.12Q75.80 0.20 76.80 0.20L76.80 0.20Q77.56 0.20 78.08 0.74Q78.60 1.28 78.56 2.04L78.56 2.04Q78.56 2.60 78.24 3.12L78.24 3.12L68.64 16.52L68.64 26.72Q68.64 27.48 68.12 28Q67.60 28.52 66.84 28.52L66.84 28.52ZM91.92 28.72Q86.84 28.72 82.40 26.80L82.40 26.80Q81.92 26.60 81.60 26.14Q81.28 25.68 81.28 25.16L81.28 25.16Q81.28 24.48 81.74 23.98Q82.20 23.48 82.92 23.48L82.92 23.48Q83.32 23.48 83.68 23.64L83.68 23.64Q87.36 25.28 91.56 25.28L91.56 25.28Q98.56 25.28 98.56 20.68L98.56 20.68Q98.56 19.48 97.66 18.68Q96.76 17.88 95.44 17.42Q94.12 16.96 91.68 16.32L91.68 16.32Q88.44 15.48 86.44 14.70Q84.44 13.92 83 12.36Q81.56 10.80 81.56 8.20L81.56 8.20Q81.56 5.92 82.76 4.06Q83.96 2.20 86.30 1.10Q88.64 0 91.92 0L91.92 0Q96.32 0 99.88 1.32L99.88 1.32Q101 1.72 101 2.92L101 2.92Q101 3.56 100.56 4.08Q100.12 4.60 99.40 4.60L99.40 4.60Q99.16 4.60 98.76 4.44L98.76 4.44Q95.64 3.36 92.32 3.36L92.32 3.36Q89.16 3.36 87.18 4.56Q85.20 5.76 85.20 7.92L85.20 7.92Q85.20 9.36 86.14 10.26Q87.08 11.16 88.50 11.66Q89.92 12.16 92.36 12.72L92.36 12.72Q95.52 13.48 97.46 14.24Q99.40 15 100.78 16.60Q102.16 18.20 102.16 20.92L102.16 20.92Q102.16 23.16 100.88 24.94Q99.60 26.72 97.28 27.72Q94.96 28.72 91.92 28.72L91.92 28.72Z" transform="translate(12 147.995) scale(1.914)"></path></svg>